# xmcd CD database file
#
# Track frame offsets:
#	150
#	23077
#	57845
#
# Disc length: 1074 seconds
#
# Revision: 0
# Processed by: cddbd v1.5.1PL0 Copyright (c) Steve Scherf et al.
# Submitted via: CDex 1.50
#
DISCID=1b043003
DTITLE=長渕剛 - 涙のセレナーデ
DYEAR=1999
DGENRE=JPop
TTITLE0=涙のセレナーデ
TTITLE1=お釈迦さま 1998.12.15 NIPPON BUDOKAN LIVE VERSION
TTITLE2=涙のセレナーデ <オリジナル・カラオケ>
EXTD=YEAR: 1999
EXTT0=
EXTT1=
EXTT2=
PLAYORDER=
